<svg width="15" height="15" fill="none" xmlns="http://www.w3.org/2000/svg"><path fill-rule="evenodd" clip-rule="evenodd" d="M7.5 0a7.5 7.5 0 100 15 7.5 7.5 0 000-15zm0 3.914c1.168 0 1.307.003 1.768.025 1.186.054 1.739.617 1.794 1.793.02.462.025.6.025 1.768 0 1.168-.005 1.307-.025 1.768-.055 1.176-.607 1.74-1.794 1.794-.461.021-.6.026-1.768.026-1.168 0-1.307-.005-1.768-.026-1.189-.054-1.739-.62-1.793-1.794-.02-.462-.026-.6-.026-1.768 0-1.168.005-1.306.026-1.768.054-1.177.607-1.739 1.793-1.793.462-.02.6-.025 1.768-.025zM5.253 7.5a2.247 2.247 0 104.494 0 2.247 2.247 0 00-4.494 0zm4.583-1.81a.525.525 0 110-1.05.525.525 0 010 1.05zM7.5 8.958a1.458 1.458 0 100-2.916 1.458 1.458 0 000 2.916zm1.804 2.89c1.587-.072 2.473-.954 2.545-2.544.021-.466.026-.616.026-1.804 0-1.188-.005-1.337-.026-1.804-.072-1.587-.954-2.471-2.545-2.544-.466-.022-.616-.027-1.804-.027-1.188 0-1.337.005-1.804.027-1.59.072-2.472.954-2.545 2.544-.021.467-.026.616-.026 1.804 0 1.188.005 1.338.026 1.804.073 1.59.955 2.472 2.545 2.545.467.021.616.026 1.804.026 1.188 0 1.338-.005 1.804-.026z" fill="#fff"/></svg>