<?xml version="1.0" encoding="UTF-8"?>
<svg width="171px" height="29px" viewBox="0 0 171 29" version="1.1" xmlns="http://www.w3.org/2000/svg" xmlns:xlink="http://www.w3.org/1999/xlink">
    <!-- Generator: Sketch 52.2 (67145) - http://www.bohemiancoding.com/sketch -->
    <title>Group 14</title>
    <desc>Created with Sketch.</desc>
    <defs>
        <polygon id="path-1" points="0.0007 0.241 22.1477 0.241 22.1477 29 0.0007 29"></polygon>
        <polygon id="path-3" points="0 29.7589 170.079 29.7589 170.079 0.9999 0 0.9999"></polygon>
    </defs>
    <g id="Page-1" stroke="none" stroke-width="1" fill="none" fill-rule="evenodd">
        <g id="Desktop-HD" transform="translate(-707.000000, -12.000000)">
            <g id="Group-14" transform="translate(707.000000, 11.000000)">
                <g id="Group-3" transform="translate(0.000000, 0.758900)">
                    <mask id="mask-2" fill="white">
                        <use xlink:href="#path-1"></use>
                    </mask>
                    <g id="Clip-2"></g>
                    <path d="M15.9417,9.0844 C15.8057,7.7044 15.3057,6.6774 14.4407,6.0014 C13.5747,5.3254 12.2907,4.9864 10.5877,4.9864 C8.9917,4.9864 7.7887,5.2584 6.9767,5.7984 C6.1657,6.3394 5.7597,7.1234 5.7597,8.1504 C5.7597,9.0174 6.0777,9.7064 6.7127,10.2204 C7.3487,10.7334 8.4227,11.1804 9.9377,11.5584 C11.4797,11.9374 12.9457,12.3094 14.3387,12.6744 C15.7317,13.0384 16.9277,13.4504 17.9287,13.9104 C18.5237,14.1824 19.0787,14.4924 19.5917,14.8434 C20.1057,15.1944 20.5517,15.6284 20.9307,16.1424 C21.3087,16.6554 21.6067,17.2644 21.8227,17.9674 C22.0397,18.6704 22.1477,19.4954 22.1477,20.4414 C22.1477,21.9294 21.8837,23.2064 21.3567,24.2744 C20.8297,25.3434 20.0857,26.2294 19.1257,26.9324 C18.1657,27.6354 17.0297,28.1544 15.7177,28.4924 C14.4067,28.8304 12.9657,29.0004 11.3987,29.0004 C9.7207,29.0004 8.1937,28.8174 6.8147,28.4524 C5.4357,28.0884 4.2457,27.5264 3.2457,26.7694 C2.2447,26.0134 1.4607,25.0724 0.8917,23.9504 C0.3247,22.8284 0.0267,21.5104 0.0007,19.9954 L5.4357,19.9954 C5.4897,21.3744 6.0497,22.4634 7.1197,23.2604 C8.1867,24.0594 9.6277,24.4564 11.4387,24.4564 C13.1157,24.4564 14.4067,24.1264 15.3127,23.4634 C16.2177,22.8014 16.6707,21.8604 16.6707,20.6444 C16.6707,20.2384 16.6107,19.8734 16.4887,19.5494 C16.3677,19.2244 16.1507,18.9204 15.8397,18.6364 C15.5287,18.3534 15.1027,18.0954 14.5617,17.8654 C14.0207,17.6364 13.3317,17.4274 12.4937,17.2364 C10.8167,16.8584 9.4037,16.5264 8.2547,16.2424 C7.1047,15.9594 6.0567,15.6014 5.1107,15.1684 C3.6507,14.5204 2.5357,13.6744 1.7637,12.6334 C0.9937,11.5924 0.6087,10.2204 0.6087,8.5164 C0.6087,7.2984 0.8117,6.1844 1.2167,5.1694 C1.6227,4.1554 2.2377,3.2834 3.0627,2.5534 C3.8867,1.8224 4.9147,1.2554 6.1457,0.8504 C7.3757,0.4434 8.8157,0.2404 10.4647,0.2404 C12.1697,0.2404 13.6827,0.4574 15.0077,0.8904 C16.3337,1.3234 17.4487,1.9314 18.3547,2.7154 C19.2597,3.4994 19.9627,4.4334 20.4637,5.5144 C20.9637,6.5964 21.2417,7.7854 21.2957,9.0844 L15.9417,9.0844 Z" id="Fill-1" fill="#ffffff" mask="url(#mask-2)"></path>
                </g>
                <path d="M34.5189,14.4673 C36.1419,14.4673 37.3109,14.0953 38.0279,13.3513 C38.7439,12.6083 39.1029,11.6413 39.1029,10.4503 C39.1029,9.3153 38.7439,8.3823 38.0279,7.6533 C37.3109,6.9223 36.1419,6.5573 34.5189,6.5573 L29.1649,6.5573 L29.1649,14.4673 L34.5189,14.4673 Z M23.5269,28.8253 L23.5269,1.8923 L35.4119,1.8923 C36.7359,1.8923 37.9259,2.1153 38.9809,2.5623 C40.0359,3.0083 40.9409,3.6303 41.6989,4.4273 C42.4559,5.2263 43.0379,6.1523 43.4429,7.2063 C43.8489,8.2603 44.0509,9.3973 44.0509,10.6133 C44.0509,11.8303 43.8489,12.9603 43.4429,14.0003 C43.0379,15.0413 42.4559,15.9343 41.6989,16.6783 C40.9409,17.4213 40.0359,18.0023 38.9809,18.4223 C37.9259,18.8413 36.7359,19.0503 35.4119,19.0503 L29.1649,19.0503 L29.1649,28.8253 L23.5269,28.8253 Z" id="Fill-4" fill="#ffffff"></path>
                <mask id="mask-4" fill="white">
                    <use xlink:href="#path-3"></use>
                </mask>
                <g id="Clip-7"></g>
                <polygon id="Fill-6" fill="#ffffff" mask="url(#mask-4)" points="45.187 28.8259 50.825 28.8259 50.825 1.8919 45.187 1.8919"></polygon>
                <polygon id="Fill-8" fill="#ffffff" mask="url(#mask-4)" points="69.5247 28.8257 58.0037 10.7347 58.0037 28.8257 52.7717 28.8257 52.7717 1.8917 58.7347 1.8917 69.4427 19.2137 69.4427 1.8917 74.7157 1.8917 74.7157 28.8257"></polygon>
                <path d="M86.5609,9.356 L81.0439,18.847 L86.5609,18.847 L86.5609,9.356 Z M86.4389,28.826 L86.4389,22.945 L75.9729,22.945 L75.9729,18.361 L85.7899,1.892 L91.7119,1.892 L91.7119,18.847 L94.7539,18.847 L94.7539,22.945 L91.7119,22.945 L91.7119,28.826 L86.4389,28.826 Z" id="Fill-9" fill="#ffffff" mask="url(#mask-4)"></path>
                <path d="M111.303,9.8433 C111.168,8.4633 110.668,7.4363 109.803,6.7603 C108.937,6.0843 107.654,5.7453 105.949,5.7453 C104.353,5.7453 103.151,6.0173 102.339,6.5573 C101.528,7.0983 101.121,7.8823 101.121,8.9093 C101.121,9.7763 101.44,10.4653 102.075,10.9793 C102.71,11.4923 103.784,11.9393 105.3,12.3173 C106.842,12.6963 108.308,13.0683 109.701,13.4333 C111.093,13.7973 112.29,14.2093 113.291,14.6693 C113.885,14.9413 114.44,15.2513 114.954,15.6023 C115.467,15.9533 115.913,16.3873 116.292,16.9013 C116.671,17.4143 116.968,18.0233 117.185,18.7263 C117.402,19.4293 117.51,20.2543 117.51,21.2003 C117.51,22.6883 117.245,23.9653 116.719,25.0333 C116.191,26.1023 115.448,26.9883 114.489,27.6913 C113.528,28.3943 112.392,28.9133 111.08,29.2513 C109.769,29.5893 108.328,29.7593 106.76,29.7593 C105.083,29.7593 103.556,29.5763 102.176,29.2113 C100.798,28.8473 99.607,28.2853 98.608,27.5283 C97.607,26.7723 96.823,25.8313 96.254,24.7093 C95.686,23.5873 95.389,22.2693 95.363,20.7543 L100.798,20.7543 C100.852,22.1333 101.412,23.2223 102.481,24.0193 C103.548,24.8183 104.99,25.2153 106.8,25.2153 C108.478,25.2153 109.769,24.8853 110.675,24.2223 C111.581,23.5603 112.033,22.6193 112.033,21.4033 C112.033,20.9973 111.973,20.6323 111.851,20.3083 C111.73,19.9833 111.513,19.6793 111.201,19.3953 C110.891,19.1123 110.465,18.8543 109.924,18.6243 C109.383,18.3953 108.694,18.1863 107.856,17.9953 C106.178,17.6173 104.766,17.2853 103.616,17.0013 C102.467,16.7183 101.419,16.3603 100.473,15.9273 C99.013,15.2793 97.898,14.4333 97.126,13.3923 C96.356,12.3513 95.971,10.9793 95.971,9.2753 C95.971,8.0573 96.174,6.9433 96.578,5.9283 C96.985,4.9143 97.6,4.0423 98.424,3.3123 C99.249,2.5813 100.277,2.0143 101.508,1.6093 C102.738,1.2023 104.178,0.9993 105.827,0.9993 C107.532,0.9993 109.045,1.2163 110.37,1.6493 C111.696,2.0823 112.811,2.6903 113.717,3.4743 C114.623,4.2583 115.325,5.1923 115.826,6.2733 C116.326,7.3553 116.604,8.5443 116.657,9.8433 L111.303,9.8433 Z" id="Fill-10" fill="#ffffff" mask="url(#mask-4)"></path>
                <path d="M129.8812,14.4673 C131.5032,14.4673 132.6732,14.0953 133.3892,13.3513 C134.1062,12.6083 134.4642,11.6413 134.4642,10.4503 C134.4642,9.3153 134.1062,8.3823 133.3892,7.6533 C132.6732,6.9223 131.5032,6.5573 129.8812,6.5573 L124.5262,6.5573 L124.5262,14.4673 L129.8812,14.4673 Z M118.8882,28.8253 L118.8882,1.8923 L130.7732,1.8923 C132.0982,1.8923 133.2882,2.1153 134.3422,2.5623 C135.3972,3.0083 136.3032,3.6303 137.0602,4.4273 C137.8172,5.2263 138.3992,6.1523 138.8052,7.2063 C139.2102,8.2603 139.4132,9.3973 139.4132,10.6133 C139.4132,11.8303 139.2102,12.9603 138.8052,14.0003 C138.3992,15.0413 137.8172,15.9343 137.0602,16.6783 C136.3032,17.4213 135.3972,18.0023 134.3422,18.4223 C133.2882,18.8413 132.0982,19.0503 130.7732,19.0503 L124.5262,19.0503 L124.5262,28.8253 L118.8882,28.8253 Z" id="Fill-11" fill="#ffffff" mask="url(#mask-4)"></path>
                <polygon id="Fill-12" fill="#ffffff" mask="url(#mask-4)" points="140.549 28.8259 146.187 28.8259 146.187 1.8919 140.549 1.8919"></polygon>
                <polygon id="Fill-13" fill="#ffffff" mask="url(#mask-4)" points="164.887 28.8257 153.366 10.7347 153.366 28.8257 148.134 28.8257 148.134 1.8917 154.097 1.8917 164.806 19.2137 164.806 1.8917 170.078 1.8917 170.078 28.8257"></polygon>
            </g>
        </g>
    </g>
</svg>