<svg width="171" height="29" xmlns="http://www.w3.org/2000/svg" xmlns:xlink="http://www.w3.org/1999/xlink"><defs><path id="path-1" d="M0 .241h22.148V29H0z"/><path id="path-3" d="M0 29.759h170.079V.999H0z"/></defs><g id="Page-1" stroke="none" stroke-width="1" fill="none" fill-rule="evenodd"><g id="Desktop-HD" transform="translate(-707 -12)"><g id="Group-14" transform="translate(707 11)"><g id="Group-3" transform="translate(0 .759)"><mask id="mask-2" fill="#fff"><use xlink:href="#path-1"/></mask><path d="M15.942 9.084c-.136-1.38-.636-2.407-1.501-3.083-.866-.676-2.15-1.015-3.853-1.015-1.596 0-2.8.272-3.611.812C6.166 6.34 5.76 7.123 5.76 8.15c0 .867.318 1.556.953 2.07.636.513 1.71.96 3.225 1.338 1.542.38 3.008.751 4.4 1.116 1.394.364 2.59.776 3.59 1.236.596.272 1.15.582 1.664.933.514.351.96.785 1.339 1.3.378.512.676 1.121.892 1.824.217.703.325 1.528.325 2.474 0 1.488-.264 2.765-.791 3.833a7.186 7.186 0 01-2.231 2.658c-.96.703-2.096 1.222-3.408 1.56-1.311.338-2.752.508-4.32.508-1.677 0-3.204-.183-4.583-.548-1.38-.364-2.57-.926-3.57-1.683A8.047 8.047 0 01.893 23.95C.325 22.828.027 21.51 0 19.995h5.435c.054 1.38.614 2.468 1.684 3.265 1.067.8 2.508 1.196 4.319 1.196 1.677 0 2.968-.33 3.874-.993.905-.662 1.358-1.603 1.358-2.819 0-.406-.06-.77-.182-1.095-.121-.325-.338-.629-.65-.913-.31-.283-.736-.54-1.277-.77-.541-.23-1.23-.439-2.068-.63-1.677-.378-3.09-.71-4.24-.994a17.719 17.719 0 01-3.143-1.074c-1.46-.648-2.575-1.494-3.347-2.535C.994 11.593.609 10.22.609 8.516c0-1.218.203-2.332.608-3.347a6.847 6.847 0 011.846-2.616c.824-.73 1.852-1.298 3.083-1.703 1.23-.407 2.67-.61 4.319-.61 1.705 0 3.218.217 4.543.65 1.326.433 2.44 1.041 3.347 1.825a8.26 8.26 0 012.109 2.8c.5 1.081.778 2.27.832 3.57h-5.354z" id="Fill-1" fill="#000" mask="url(#mask-2)"/></g><path d="M34.519 14.467c1.623 0 2.792-.372 3.509-1.116.716-.743 1.075-1.71 1.075-2.9 0-1.136-.36-2.069-1.075-2.798-.717-.73-1.886-1.096-3.51-1.096h-5.353v7.91h5.354zM23.527 28.825V1.892h11.885c1.324 0 2.514.223 3.569.67a8.002 8.002 0 012.718 1.865 8.354 8.354 0 011.744 2.78c.406 1.053.608 2.19.608 3.406 0 1.217-.202 2.347-.608 3.387a7.533 7.533 0 01-1.744 2.678 8.121 8.121 0 01-2.718 1.744c-1.055.42-2.245.628-3.57.628h-6.246v9.775h-5.638z" id="Fill-4" fill="#000"/><mask id="mask-4" fill="#fff"><use xlink:href="#path-3"/></mask><path id="Fill-6" fill="#000" mask="url(#mask-4)" d="M45.187 28.826h5.638V1.892h-5.638z"/><path id="Fill-8" fill="#000" mask="url(#mask-4)" d="M69.525 28.826L58.004 10.735v18.09h-5.232V1.893h5.963l10.708 17.322V1.892h5.273v26.934z"/><path d="M86.56 9.356l-5.516 9.491h5.517V9.356zm-.121 19.47v-5.881H75.973v-4.584L85.79 1.892h5.922v16.955h3.042v4.098h-3.042v5.881h-5.273z" id="Fill-9" fill="#000" mask="url(#mask-4)"/><path d="M111.303 9.843c-.135-1.38-.635-2.407-1.5-3.083-.866-.676-2.149-1.015-3.854-1.015-1.596 0-2.798.272-3.61.812-.811.541-1.218 1.325-1.218 2.352 0 .867.319 1.556.954 2.07.635.513 1.709.96 3.225 1.338 1.542.38 3.008.751 4.401 1.116 1.392.364 2.589.776 3.59 1.236.594.272 1.149.582 1.663.933.513.351.959.785 1.338 1.3.379.512.676 1.121.893 1.824.217.703.325 1.528.325 2.474 0 1.488-.265 2.765-.791 3.833a7.203 7.203 0 01-2.23 2.658c-.961.703-2.097 1.222-3.409 1.56-1.311.338-2.752.508-4.32.508-1.677 0-3.204-.183-4.584-.548-1.378-.364-2.569-.926-3.568-1.683a8.047 8.047 0 01-2.354-2.819c-.568-1.122-.865-2.44-.891-3.955h5.435c.054 1.38.614 2.468 1.683 3.265 1.067.8 2.509 1.196 4.319 1.196 1.678 0 2.969-.33 3.875-.993.906-.662 1.358-1.603 1.358-2.819 0-.406-.06-.77-.182-1.095-.121-.325-.338-.629-.65-.913-.31-.283-.736-.54-1.277-.77-.541-.23-1.23-.439-2.068-.63-1.678-.378-3.09-.71-4.24-.994a17.735 17.735 0 01-3.143-1.074c-1.46-.648-2.575-1.494-3.347-2.535-.77-1.04-1.155-2.413-1.155-4.117 0-1.218.203-2.332.607-3.347a6.868 6.868 0 011.846-2.616c.825-.73 1.853-1.298 3.084-1.703 1.23-.407 2.67-.61 4.319-.61 1.705 0 3.218.217 4.543.65 1.326.433 2.441 1.041 3.347 1.825a8.247 8.247 0 012.109 2.8c.5 1.081.778 2.27.831 3.57h-5.354z" id="Fill-10" fill="#000" mask="url(#mask-4)"/><path d="M129.881 14.467c1.622 0 2.792-.372 3.508-1.116.717-.743 1.075-1.71 1.075-2.9 0-1.136-.358-2.069-1.075-2.798-.716-.73-1.886-1.096-3.508-1.096h-5.355v7.91h5.355zm-10.993 14.358V1.892h11.885c1.325 0 2.515.223 3.57.67a7.993 7.993 0 012.717 1.865 8.373 8.373 0 011.745 2.78c.405 1.053.608 2.19.608 3.406 0 1.217-.203 2.347-.608 3.387a7.549 7.549 0 01-1.745 2.678 8.111 8.111 0 01-2.718 1.744c-1.054.42-2.244.628-3.569.628h-6.247v9.775h-5.638z" id="Fill-11" fill="#000" mask="url(#mask-4)"/><path id="Fill-12" fill="#000" mask="url(#mask-4)" d="M140.549 28.826h5.638V1.892h-5.638z"/><path id="Fill-13" fill="#000" mask="url(#mask-4)" d="M164.887 28.826l-11.521-18.091v18.09h-5.232V1.893h5.963l10.709 17.322V1.892h5.272v26.934z"/></g></g></g></svg>