<svg width="11" height="11" fill="none" xmlns="http://www.w3.org/2000/svg"><path fill-rule="evenodd" clip-rule="evenodd" d="M7.49 7.49a3.858 3.858 0 01-2.737 1.133c-.99 0-1.98-.378-2.736-1.134A3.857 3.857 0 01.883 4.753c0-.99.378-1.98 1.134-2.737A3.859 3.859 0 014.753.883c.99 0 1.982.378 2.737 1.133a3.861 3.861 0 011.134 2.737A3.86 3.86 0 017.49 7.489zm3.146 2.346L8.49 7.688A4.74 4.74 0 009.506 4.75a4.736 4.736 0 00-1.392-3.359A4.735 4.735 0 004.756 0a4.74 4.74 0 00-3.364 1.392A4.74 4.74 0 000 4.753c0 1.216.464 2.433 1.392 3.36a4.737 4.737 0 003.36 1.393c1.038 0 2.077-.34 2.936-1.017l2.148 2.147a.523.523 0 00.74 0l.06-.06a.522.522 0 000-.74z" fill="#000"/></svg>