<svg width="15" height="15" fill="none" xmlns="http://www.w3.org/2000/svg"><path fill-rule="evenodd" clip-rule="evenodd" d="M7.5 0a7.5 7.5 0 100 15 7.5 7.5 0 000-15zm2.015 11.17a.435.435 0 00.404.053.424.424 0 00.263-.307c.317-1.49 1.086-5.258 1.374-6.612a.285.285 0 00-.094-.277.294.294 0 00-.29-.05c-1.53.566-6.238 2.332-8.162 3.044a.302.302 0 00-.197.292c.004.128.09.24.216.278.863.258 1.995.617 1.995.617s.53 1.599.805 2.411a.32.32 0 00.22.21.315.315 0 00.297-.075l1.128-1.065s1.302.954 2.041 1.48zM5.501 8.005l.612 2.019.136-1.279 3.714-3.349a.101.101 0 00.011-.137.103.103 0 00-.136-.023L5.5 8.006z" fill="#fff"/></svg>