<svg width="15" height="12" fill="none" xmlns="http://www.w3.org/2000/svg"><path fill-rule="evenodd" clip-rule="evenodd" d="M5.056 10.892L3.718 6.936.267 5.75c-.353-.122-.357-.577-.005-.7L14.443.027c.305-.11.614.135.548.424l-2.547 11.25c-.062.268-.4.386-.638.228L8.331 9.61a.612.612 0 00-.7.018l-1.928 1.444c-.224.167-.562.075-.647-.179zm7.256-9.206L5.332 5.77a.655.655 0 00-.304.753l.752 2.519c.055.178.33.159.355-.023l.196-1.384c.035-.257.168-.5.37-.678l5.76-5.09c.107-.094-.026-.257-.149-.182z" fill="#fff"/></svg>