<svg width="18" height="18" fill="none" xmlns="http://www.w3.org/2000/svg"><mask id="mask0" maskUnits="userSpaceOnUse" x="0" y="0" width="18" height="18"><path fill-rule="evenodd" clip-rule="evenodd" d="M0 0h18v18H0V0z" fill="#fff"/></mask><g mask="url(#mask0)"><path fill-rule="evenodd" clip-rule="evenodd" d="M9 0a9 9 0 100 18A9 9 0 009 0zm0 1.2c4.302 0 7.8 3.499 7.8 7.8s-3.498 7.8-7.8 7.8c-4.301 0-7.8-3.499-7.8-7.8S4.699 1.2 9 1.2z" fill="#4A4A4A"/></g><path fill-rule="evenodd" clip-rule="evenodd" d="M9 2.077a3.115 3.115 0 100 6.231 3.115 3.115 0 000-6.23zm0 1.2c1.056 0 1.915.86 1.915 1.915A1.918 1.918 0 019 7.108a1.918 1.918 0 01-1.915-1.916c0-1.056.86-1.915 1.915-1.915z" fill="#4A4A4A"/><path d="M3.125 15.231a5.884 5.884 0 0111.753.065" stroke="#4A4A4A" stroke-width="1.2"/></svg>