<svg width="15" height="15" fill="none" xmlns="http://www.w3.org/2000/svg"><path fill-rule="evenodd" clip-rule="evenodd" d="M.036 15l1.054-3.852a7.417 7.417 0 01-.992-3.716C.1 3.334 3.434 0 7.531 0c1.988 0 3.855.775 5.258 2.18a7.39 7.39 0 012.175 5.259c-.002 4.098-3.336 7.432-7.433 7.432a7.438 7.438 0 01-3.555-.905L.036 15zm4.123-2.38c1.047.623 2.047.995 3.37.996a6.19 6.19 0 006.18-6.178 6.176 6.176 0 00-6.175-6.183 6.187 6.187 0 00-6.18 6.178c-.001 1.39.406 2.431 1.09 3.52l-.624 2.28 2.339-.612zm6.863-3.581c.13.062.216.104.254.167.046.077.046.449-.108.883-.155.434-.897.83-1.254.883-.32.048-.725.068-1.17-.073-.27-.086-.616-.2-1.059-.391-1.738-.75-2.913-2.434-3.139-2.757l-.033-.048L4.51 7.7c-.1-.134-.756-1.01-.756-1.918 0-.854.42-1.302.613-1.51l.037-.04A.68.68 0 014.9 4l.357.006h.04c.109 0 .244 0 .378.319l.189.459c.163.399.35.856.383.92.047.093.078.202.016.325l-.027.054a1.01 1.01 0 01-.16.256 7.166 7.166 0 00-.096.114c-.064.078-.128.156-.183.211-.093.093-.19.194-.082.38.109.185.482.794 1.034 1.286a4.789 4.789 0 001.37.866c.051.022.093.04.123.056.186.093.295.077.403-.046.108-.124.464-.543.588-.729.124-.186.248-.155.418-.093.17.062 1.084.512 1.27.605l.102.05z" fill="#fff"/></svg>